<svg version="1.1" id="Capa_1" xmlns="http://www.w3.org/2000/svg" xmlns:xlink="http://www.w3.org/1999/xlink" x="0px" y="0px" fill="#666" viewBox="0 0 512.001 512.001" style="enable-background:new 0 0 512.001 512.001;" xml:space="preserve">
<g>
	<g>
		<path d="M394.15,130.418c-5.103-8.892-5.103-19.94,0-28.833c2.062-3.592,0.82-8.177-2.772-10.239    c-3.594-2.061-8.178-0.82-10.239,2.773c-7.745,13.498-7.745,30.267,0,43.765c5.101,8.892,5.101,19.941-0.001,28.833    c-2.062,3.594-0.82,8.177,2.773,10.239c3.548,2.034,8.202,0.775,10.239-2.773C401.895,160.685,401.895,143.915,394.15,130.418z"/>
	</g>
</g>
<g>
	<g>
		<path d="M330.039,109.794c-5.103-8.892-5.103-19.941,0-28.832c2.062-3.593,0.82-8.177-2.772-10.239    c-3.594-2.062-8.178-0.821-10.239,2.772c-7.745,13.498-7.745,30.267,0,43.765c5.102,8.892,5.102,19.94-0.001,28.833    c-2.062,3.593-0.82,8.177,2.773,10.239c3.549,2.035,8.202,0.776,10.239-2.773C337.783,140.061,337.783,123.292,330.039,109.794z"/>
	</g>
</g>
<g>
	<g>
		<path d="M265.928,130.418c-5.103-8.892-5.103-19.94,0-28.833c2.062-3.593,0.82-8.177-2.773-10.239    c-3.592-2.061-8.178-0.82-10.239,2.773c-7.744,13.498-7.744,30.267,0,43.765c5.102,8.892,5.102,19.941,0,28.833    c-2.062,3.594-0.82,8.177,2.773,10.239c3.55,2.036,8.201,0.777,10.239-2.773C273.672,160.685,273.672,143.915,265.928,130.418z"/>
	</g>
</g>
<g>
	<g>
		<path d="M442.047,222.484c-0.315-13.937-11.743-25.179-25.753-25.179H230.919c-14.209,0-25.768,11.56-25.768,25.768v28.135    c-11.556-10.009-27.716-15.088-48.16-15.088c-23.262,0-41.167,6.863-52.707,19.599c-26.972,1.486-48.112,7.606-62.84,18.233    c-12.84,9.266-20.233,21.533-21.636,35.718C-2.418,353.981-6.138,394.076,9.652,419.834c8.613,14.05,22.651,22.439,37.558,22.441    c16.014,0,27.921-8.031,38.124-19.532c7.027-7.921,14.294-16.105,33.286-21.356c5.872,0.891,11.848,1.454,17.894,1.676    c6.734,5.006,13.684,7.921,20.474,7.921c6.612,0,13.591-2.741,20.562-7.903c6.127-0.227,12.089-0.799,17.867-1.677    c18.948,5.251,26.206,13.425,33.226,21.338c9.92,11.184,22.713,19.533,38.13,19.533c14.359,0,27.901-7.803,36.575-20.938h53.849    c36.867,0,68.302-23.637,79.988-56.547h3.646c39.242,0,71.168-31.926,71.168-71.169    C512.001,254.786,480.729,223.137,442.047,222.484z M74.113,412.787c-7.067,7.966-15.785,14.486-26.905,14.486    c-9.787-0.001-18.813-5.57-24.765-15.279c-5.376-8.769-14.573-32.158,1.666-75.029c5.028,12.386,14.079,24.368,26.461,34.765    c0.034,0.029,0.069,0.057,0.103,0.086c12.572,10.596,27.405,18.361,42.944,23.604c0.08,0.027,0.158,0.056,0.237,0.083    C84.551,401.022,78.966,407.317,74.113,412.787z M156.988,395.981c-3.753,0-8.272-2.186-13.067-6.087    c-0.021-0.017-0.037-0.038-0.059-0.056c-17.152-14.105-28.127-36.83-34.406-57.69c-1.343-4.464-2.645-10.574-8.357-10.867    c-12.055-0.618-6.431,14.468-4.443,20.312c1.752,5.149,3.801,10.194,6.035,15.152c4.724,10.484,10.487,20.595,17.489,29.733    c-20.499-3.209-40.547-11.025-56.986-23.823c-15.19-11.827-29.892-29.838-28.563-50.252c1.423-21.848,23.239-36.611,59.744-40.813    c-0.042,0.104-0.078,0.214-0.12,0.318c-3.388,8.481-4.805,17.659-4.935,26.76c-0.059,4.143,3.251,7.548,7.399,7.606    c4.179,0.063,7.548-3.251,7.606-7.394c0.17-12.027,3.529-21.803,9.863-31.85c8.644-10.57,22.933-15.909,42.798-15.909    c15.577,0,33.195,3.589,43.352,16.722c20.046,25.921,6.035,67.962-7.989,93.321C181.098,381.512,166.759,395.981,156.988,395.981z     M193.864,386.469c3.123-4.087,6.183-8.635,9.137-13.632c6.874-11.626,12.314-24.182,16.125-37.139    c7.327-24.91,7.411-47.077,0.473-64.111c30.829,3.549,51.192,14.629,57.635,31.149c0.013,0.034,0.024,0.068,0.037,0.103    c2.689,7.105,2.664,15.025,0.728,22.313c-3.469,13.064-13.116,26.526-27.218,37.505c-12.502,9.733-27.539,16.896-43.942,21.121    C202.566,384.879,198.223,385.786,193.864,386.469z M293.385,408.613c-5.093,10.264-14.657,18.661-26.614,18.661    c-11.676-0.001-19.553-6.197-26.905-14.485c-4.854-5.471-10.439-11.767-19.742-17.286c18.58-6.168,35.253-15.86,48.316-28.267    c9.79-9.298,17.047-19.685,21.369-30.277C298.081,358.969,304.26,386.347,293.385,408.613z M427.059,327.552    c0,9.28-0.055,18.259-2.47,27.298c-8.09,29.633-35.23,51.486-67.392,51.486h-46.764c0.363-1.147,0.692-2.316,0.999-3.5    c0.443-1.681,0.823-3.383,1.144-5.093c3.507-18.417,1.954-46.123-16.76-84.746c-0.542-1.12-1.087-2.24-1.645-3.352    c-1.053-10.591-5.461-20.105-12.972-28.104c-0.055-0.059-0.111-0.117-0.166-0.175c-11.703-12.373-28.382-18.871-44.739-22.296    c-5.122-1.072-10.302-1.874-15.503-2.448c-0.215-0.024-0.423-0.053-0.638-0.076v-33.471h-0.001c0-5.937,4.83-10.766,10.766-10.766    h185.375c5.937,0,10.766,4.83,10.766,10.766V327.552z M442.061,267.224c14.004,0.645,25.199,12.237,25.199,26.398    s-11.195,25.753-25.199,26.398V267.224z M441.009,349.788c0.218-0.001,0.708-5.945,0.751-6.451    c0.233-2.765,0.302-5.529,0.302-8.303c22.279-0.652,40.201-18.979,40.201-41.413c0-22.434-17.922-40.76-40.201-41.413v-14.741    c30.405,0.656,54.936,25.594,54.936,56.154C496.998,324.532,471.897,349.692,441.009,349.788z"/>
	</g>
</g>
</svg>