<svg version="1.1" id="Capa_1" fill="#666" xmlns="http://www.w3.org/2000/svg" xmlns:xlink="http://www.w3.org/1999/xlink" x="0px" y="0px" viewBox="0 0 512.002 512.002" style="enable-background:new 0 0 512.002 512.002;" xml:space="preserve">
<g>
	<g>
		<path d="M494.133,218.394c-4.329-12.176-18.037-46.185-46.479-80.532c-20.476-24.727-44.362-44.443-70.997-58.602    c-21.549-11.455-44.919-19.232-69.806-23.312c-2.084-21.354-20.135-38.099-42.027-38.099c-21.885,0-39.932,16.735-42.025,38.079    c-22.973,3.765-44.65,10.694-64.78,20.742c-26.04,12.998-49.598,31.233-70.02,54.199c-6.433,7.234,4.772,17.206,11.208,9.969    c35.715-40.164,79.969-63.951,131.873-71.011c0.038-0.005,0.075-0.004,0.113-0.01c46.749-6.387,96.202,0.331,138.125,22.529    c24.862,13.164,47.212,31.553,66.43,54.657c23.292,28.001,36.356,56.331,42.066,70.705H51.83    c4.558-11.489,13.805-31.881,29.193-53.84c5.524-7.882-6.693-16.586-12.282-8.61c-19.578,27.936-29.631,53.052-33.223,63.135    c-10.249,2.526-17.873,11.791-17.873,22.808c0,12.954,10.539,23.492,23.493,23.492h113.261L88.84,349.031H7.5    c-4.142,0-7.5,3.358-7.5,7.5c0,0,0,129.554,0,130.12c0,2.183,0.996,4.188,2.548,5.575c1.333,1.192,3.077,1.927,4.952,1.927    c0.293,0,0.587-0.017,0.881-0.052l85.01-10.052c3.775-0.446,6.619-3.647,6.619-7.448v-27.859l178.082-43.989    c5.484-1.012,10.468-3.619,14.43-7.55c0.094-0.093,0.185-0.188,0.274-0.286l90.834-100.179    c8.605-8.672,10.265-21.692,4.961-32.045h99.918c12.954,0,23.493-10.539,23.493-23.492    C512.002,230.185,504.379,220.921,494.133,218.394z M288.887,53.666c-10.315-0.926-20.68-1.257-31.033-0.994    c-5.428,0.136-10.847,0.456-16.257,0.921c-1.098,0.095-2.202,0.177-3.293,0.285c2.814-12.038,13.636-21.029,26.519-21.029    s23.705,8.991,26.519,21.029C290.529,53.797,289.705,53.739,288.887,53.666z M85.009,469.936L15,478.214V364.031h70.009V469.936z     M372.912,286.243c-0.093,0.093-0.185,0.188-0.273,0.285l-90.808,100.15c-1.819,1.757-4.095,2.913-6.592,3.348    c-0.172,0.03-0.342,0.066-0.511,0.107l-174.719,43.158v-74.188c0,0,70.646-90.883,70.715-90.972    c4.115-5.29,13.294-3.988,17.534,0.223c4.355,4.326,4.974,11.111,1.473,16.133c-0.697,1-39.239,60.222-39.285,60.294    c-3.205,4.924,0.491,11.556,6.309,11.556h106.649c1.979,0,3.878-0.782,5.283-2.176c0,0,86.374-85.715,86.469-85.81    c4.884-4.847,12.983-4.811,17.824,0.068C377.875,273.352,377.844,281.348,372.912,286.243z M203.919,264.693h43.597    l-76.653,76.068c0,0,30.456-46.666,31.173-47.695C208.017,284.487,208.496,273.578,203.919,264.693z M215.298,341.337h-23.72    l73.548-72.986c2.376-2.358,5.528-3.657,8.877-3.657c4.771,0,9.287,2.824,11.347,7.126L215.298,341.337z M310.14,268.351    c2.377-2.358,5.529-3.657,8.877-3.657c4.793,0,9.278,2.806,11.348,7.126l-70.052,69.518h-23.72L310.14,268.351z M488.507,249.693    H41.138c-4.683,0-8.493-3.809-8.493-8.492c0-4.683,3.81-8.492,8.493-8.492h447.369c4.683,0,8.493,3.81,8.493,8.492    S493.19,249.693,488.507,249.693z"/>
	</g>
</g>
</svg>