<svg id="Capa_1" enable-background="new 0 0 512 512" height="100" fill="#666" viewBox="0 0 512 512" width="100" xmlns="http://www.w3.org/2000/svg"><g><path d="m488.261 415.457h-117.771v-173.987c0-4.142-3.358-7.5-7.5-7.5s-7.5 3.358-7.5 7.5v108.31h-154.954c-4.728-7.741-13.256-12.919-22.972-12.919h-31.534v-145.271h209.46v14.88c0 4.142 3.358 7.5 7.5 7.5s7.5-3.358 7.5-7.5v-55.23c0-23.705-19.281-42.99-42.98-42.99h-36.245v-51.008h56.364c4.687 0 8.91 2.783 10.759 7.089l9.248 21.539c2.319 5.401 7.597 8.641 13.133 8.64 1.875 0 3.781-.372 5.61-1.157l26.369-11.319c7.231-3.104 10.588-11.512 7.484-18.744l-15.83-36.873c-6.891-16.047-22.628-26.417-40.093-26.417h-32.487c-4.142 0-7.5 3.358-7.5 7.5s3.358 7.5 7.5 7.5h32.487c11.46 0 21.787 6.805 26.309 17.336l15.542 36.203-25.029 10.744-8.96-20.868c-4.217-9.824-13.851-16.172-24.542-16.172h-63.816c-.016 0-.032-.002-.048-.002s-.032.002-.048.002h-65.918c-.016 0-.032-.002-.048-.002s-.032.002-.048.002h-51.741v-27.243h130.86c4.142 0 7.5-3.358 7.5-7.5s-3.358-7.5-7.5-7.5h-131.058c-8.162 0-14.802 6.64-14.802 14.802v27.638c0 8.162 6.64 14.802 14.802 14.802h44.487v51.008h-36.241c-23.699 0-42.98 19.285-42.98 42.99v32.782c0 .023-.003.045-.003.068s.003.045.003.068v152.703h-22.247c-4.142 0-7.5 3.358-7.5 7.5s3.358 7.5 7.5 7.5h68.781c6.561 0 11.898 5.337 11.898 11.898s-5.337 11.898-11.898 11.898h-128.603c-13.236 0-24.004-10.768-24.004-24.004v-30.076c0-.1.007-.162.007-.162.077-.073.296-.135.357-.126 0 0 .044.035.117.146.044.068.089.135.135.201.203.292 5.044 7.241 11.466 14.278 9.926 10.878 17.943 15.945 25.229 15.945h11.516c4.142 0 7.5-3.358 7.5-7.5s-3.358-7.5-7.5-7.5h-11.516c-4.021 0-15.823-11.506-24.317-23.697-3.726-5.64-10.559-8.14-17.056-6.221-6.542 1.933-10.938 7.814-10.938 14.636v30.076c0 15.555 9.156 29.008 22.359 35.265-1.539 2.921-2.421 6.24-2.421 9.765v58.654c-10.69.83-19.14 9.775-19.14 20.675v15.231c0 11.445 9.311 20.757 20.756 20.757h456.75c7.6 0 13.782-6.183 13.782-13.782v-68.979c0-7.6-6.183-13.782-13.782-13.782zm-263.011-358.215h51.015v51.008h-51.015zm-51.24 66.008h153.5c15.429 0 27.98 12.556 27.98 27.99v25.35h-209.46v-25.35c0-15.434 12.552-27.99 27.98-27.99zm30.427 241.53h151.053v50.677h-54.687c-12.393 0-24.533 3.417-35.107 9.879l-45.964 28.095c-1.952 1.193-4.193 1.824-6.481 1.824h-24.02v-58.572c0-2.83-.57-5.526-1.588-7.993 9.553-3.875 16.387-13.082 16.794-23.91zm-159.542 90.475v-58.572c0-3.323 2.703-6.026 6.026-6.026h28.147v20.612c0 4.142 3.358 7.5 7.5 7.5s7.5-3.358 7.5-7.5v-20.612h30.99v20.612c0 4.142 3.358 7.5 7.5 7.5s7.5-3.358 7.5-7.5v-20.612h28.147c3.323 0 6.026 2.703 6.026 6.026v58.572zm-19.141 35.988v-15.231c0-3.174 2.582-5.757 5.756-5.757h181.741c5.05 0 9.996-1.392 14.305-4.025l45.964-28.095c8.217-5.023 17.652-7.678 27.284-7.678h186.239v25.771h-158.307c-22.788 0-41.401 18.164-42.153 40.772h-255.072c-3.175 0-5.757-2.583-5.757-5.757zm461.289 5.757h-185.459c.739-14.336 12.635-25.772 27.152-25.772h158.307z"/></g></svg>